<mxfile host="app.diagrams.net" modified="2024-03-02T13:07:02.872Z" agent="Mozilla/5.0 (Windows NT 10.0; Win64; x64) AppleWebKit/537.36 (KHTML, like Gecko) Chrome/122.0.0.0 Safari/537.36" etag="c0rKvdQ71SXczRhiQ7mz" version="23.1.6" type="device">
  <diagram name="Страница — 1" id="uK4usRjwp5LtzEd1oJey">
    <mxGraphModel dx="592" dy="674" grid="1" gridSize="10" guides="1" tooltips="1" connect="1" arrows="1" fold="1" page="1" pageScale="1" pageWidth="1169" pageHeight="827" math="0" shadow="0">
      <root>
        <mxCell id="0" />
        <mxCell id="1" parent="0" />
        <mxCell id="csDiMfOMKiNwgXRh4vUT-1" value="пользователь" style="shape=umlActor;verticalLabelPosition=bottom;verticalAlign=top;html=1;outlineConnect=0;" vertex="1" parent="1">
          <mxGeometry x="200" y="120" width="30" height="60" as="geometry" />
        </mxCell>
        <mxCell id="csDiMfOMKiNwgXRh4vUT-27" style="rounded=0;orthogonalLoop=1;jettySize=auto;html=1;exitX=1;exitY=0.3333333333333333;exitDx=0;exitDy=0;exitPerimeter=0;entryX=0.5;entryY=0;entryDx=0;entryDy=0;endArrow=none;endFill=0;" edge="1" parent="1" source="csDiMfOMKiNwgXRh4vUT-2" target="csDiMfOMKiNwgXRh4vUT-26">
          <mxGeometry relative="1" as="geometry" />
        </mxCell>
        <mxCell id="csDiMfOMKiNwgXRh4vUT-2" value="админ" style="shape=umlActor;verticalLabelPosition=bottom;verticalAlign=top;html=1;outlineConnect=0;" vertex="1" parent="1">
          <mxGeometry x="450" y="80" width="30" height="60" as="geometry" />
        </mxCell>
        <mxCell id="csDiMfOMKiNwgXRh4vUT-14" style="edgeStyle=orthogonalEdgeStyle;rounded=0;orthogonalLoop=1;jettySize=auto;html=1;" edge="1" parent="1" source="csDiMfOMKiNwgXRh4vUT-3">
          <mxGeometry relative="1" as="geometry">
            <mxPoint x="175" y="650" as="targetPoint" />
          </mxGeometry>
        </mxCell>
        <mxCell id="csDiMfOMKiNwgXRh4vUT-3" value="Kurt" style="shape=umlActor;verticalLabelPosition=bottom;verticalAlign=top;html=1;outlineConnect=0;" vertex="1" parent="1">
          <mxGeometry x="160" y="450" width="30" height="60" as="geometry" />
        </mxCell>
        <mxCell id="csDiMfOMKiNwgXRh4vUT-33" style="edgeStyle=orthogonalEdgeStyle;rounded=0;orthogonalLoop=1;jettySize=auto;html=1;exitX=1;exitY=1;exitDx=0;exitDy=0;exitPerimeter=0;entryX=0.5;entryY=0;entryDx=0;entryDy=0;" edge="1" parent="1" source="csDiMfOMKiNwgXRh4vUT-4" target="csDiMfOMKiNwgXRh4vUT-32">
          <mxGeometry relative="1" as="geometry" />
        </mxCell>
        <mxCell id="csDiMfOMKiNwgXRh4vUT-4" value="Schet" style="shape=umlActor;verticalLabelPosition=bottom;verticalAlign=top;html=1;outlineConnect=0;" vertex="1" parent="1">
          <mxGeometry x="160" y="650" width="30" height="60" as="geometry" />
        </mxCell>
        <mxCell id="csDiMfOMKiNwgXRh4vUT-5" value="код счета" style="ellipse;whiteSpace=wrap;html=1;" vertex="1" parent="1">
          <mxGeometry x="10" y="640" width="120" height="80" as="geometry" />
        </mxCell>
        <mxCell id="csDiMfOMKiNwgXRh4vUT-6" style="edgeStyle=orthogonalEdgeStyle;rounded=0;orthogonalLoop=1;jettySize=auto;html=1;entryX=0.5;entryY=0.5;entryDx=0;entryDy=0;entryPerimeter=0;" edge="1" parent="1" source="csDiMfOMKiNwgXRh4vUT-5" target="csDiMfOMKiNwgXRh4vUT-4">
          <mxGeometry relative="1" as="geometry" />
        </mxCell>
        <mxCell id="csDiMfOMKiNwgXRh4vUT-10" style="edgeStyle=orthogonalEdgeStyle;rounded=0;orthogonalLoop=1;jettySize=auto;html=1;exitX=0.5;exitY=1;exitDx=0;exitDy=0;entryX=0.5;entryY=0;entryDx=0;entryDy=0;entryPerimeter=0;" edge="1" parent="1" target="csDiMfOMKiNwgXRh4vUT-4">
          <mxGeometry relative="1" as="geometry">
            <mxPoint x="175" y="630" as="sourcePoint" />
          </mxGeometry>
        </mxCell>
        <mxCell id="csDiMfOMKiNwgXRh4vUT-12" value="Количество денег" style="ellipse;whiteSpace=wrap;html=1;" vertex="1" parent="1">
          <mxGeometry x="230" y="640" width="120" height="80" as="geometry" />
        </mxCell>
        <mxCell id="csDiMfOMKiNwgXRh4vUT-13" style="edgeStyle=orthogonalEdgeStyle;rounded=0;orthogonalLoop=1;jettySize=auto;html=1;exitX=0;exitY=0.5;exitDx=0;exitDy=0;entryX=0.5;entryY=0.5;entryDx=0;entryDy=0;entryPerimeter=0;" edge="1" parent="1" source="csDiMfOMKiNwgXRh4vUT-12" target="csDiMfOMKiNwgXRh4vUT-4">
          <mxGeometry relative="1" as="geometry" />
        </mxCell>
        <mxCell id="csDiMfOMKiNwgXRh4vUT-15" value="виды карт&lt;div&gt;дебетивные&amp;nbsp;&lt;/div&gt;&lt;div&gt;кредитные&lt;/div&gt;" style="ellipse;whiteSpace=wrap;html=1;" vertex="1" parent="1">
          <mxGeometry x="220" y="430" width="120" height="80" as="geometry" />
        </mxCell>
        <mxCell id="csDiMfOMKiNwgXRh4vUT-16" style="edgeStyle=orthogonalEdgeStyle;rounded=0;orthogonalLoop=1;jettySize=auto;html=1;entryX=1;entryY=0.3333333333333333;entryDx=0;entryDy=0;entryPerimeter=0;" edge="1" parent="1" source="csDiMfOMKiNwgXRh4vUT-15" target="csDiMfOMKiNwgXRh4vUT-3">
          <mxGeometry relative="1" as="geometry" />
        </mxCell>
        <mxCell id="csDiMfOMKiNwgXRh4vUT-17" value="Завести счет на карту или сделать новую" style="ellipse;whiteSpace=wrap;html=1;" vertex="1" parent="1">
          <mxGeometry y="70" width="120" height="80" as="geometry" />
        </mxCell>
        <mxCell id="csDiMfOMKiNwgXRh4vUT-18" style="rounded=0;orthogonalLoop=1;jettySize=auto;html=1;exitX=1;exitY=0.5;exitDx=0;exitDy=0;entryX=0;entryY=0.3333333333333333;entryDx=0;entryDy=0;entryPerimeter=0;endArrow=none;endFill=0;" edge="1" parent="1" source="csDiMfOMKiNwgXRh4vUT-17" target="csDiMfOMKiNwgXRh4vUT-1">
          <mxGeometry relative="1" as="geometry" />
        </mxCell>
        <mxCell id="csDiMfOMKiNwgXRh4vUT-19" value="просмотр суммы на счете" style="ellipse;whiteSpace=wrap;html=1;" vertex="1" parent="1">
          <mxGeometry x="170" width="120" height="80" as="geometry" />
        </mxCell>
        <mxCell id="csDiMfOMKiNwgXRh4vUT-28" style="rounded=0;orthogonalLoop=1;jettySize=auto;html=1;exitX=1;exitY=0.5;exitDx=0;exitDy=0;endArrow=blockThin;endFill=1;" edge="1" parent="1" source="csDiMfOMKiNwgXRh4vUT-20" target="csDiMfOMKiNwgXRh4vUT-26">
          <mxGeometry relative="1" as="geometry" />
        </mxCell>
        <mxCell id="csDiMfOMKiNwgXRh4vUT-20" value="Заблокировать карту" style="ellipse;whiteSpace=wrap;html=1;" vertex="1" parent="1">
          <mxGeometry x="300" y="210" width="120" height="80" as="geometry" />
        </mxCell>
        <mxCell id="csDiMfOMKiNwgXRh4vUT-21" value="Пополнить счет" style="ellipse;whiteSpace=wrap;html=1;" vertex="1" parent="1">
          <mxGeometry x="30" y="210" width="120" height="80" as="geometry" />
        </mxCell>
        <mxCell id="csDiMfOMKiNwgXRh4vUT-22" style="rounded=0;orthogonalLoop=1;jettySize=auto;html=1;entryX=0.5;entryY=0;entryDx=0;entryDy=0;entryPerimeter=0;endArrow=none;endFill=0;" edge="1" parent="1" source="csDiMfOMKiNwgXRh4vUT-19" target="csDiMfOMKiNwgXRh4vUT-1">
          <mxGeometry relative="1" as="geometry" />
        </mxCell>
        <mxCell id="csDiMfOMKiNwgXRh4vUT-23" style="rounded=0;orthogonalLoop=1;jettySize=auto;html=1;exitX=0;exitY=0.5;exitDx=0;exitDy=0;entryX=1;entryY=0.3333333333333333;entryDx=0;entryDy=0;entryPerimeter=0;endArrow=none;endFill=0;" edge="1" parent="1" source="csDiMfOMKiNwgXRh4vUT-20" target="csDiMfOMKiNwgXRh4vUT-1">
          <mxGeometry relative="1" as="geometry" />
        </mxCell>
        <mxCell id="csDiMfOMKiNwgXRh4vUT-24" style="rounded=0;orthogonalLoop=1;jettySize=auto;html=1;exitX=0.5;exitY=0;exitDx=0;exitDy=0;entryX=0;entryY=1;entryDx=0;entryDy=0;entryPerimeter=0;endArrow=none;endFill=0;" edge="1" parent="1" source="csDiMfOMKiNwgXRh4vUT-21" target="csDiMfOMKiNwgXRh4vUT-1">
          <mxGeometry relative="1" as="geometry" />
        </mxCell>
        <mxCell id="csDiMfOMKiNwgXRh4vUT-26" value="поиск карт по id, имени, счету" style="ellipse;whiteSpace=wrap;html=1;" vertex="1" parent="1">
          <mxGeometry x="480" y="200" width="120" height="80" as="geometry" />
        </mxCell>
        <mxCell id="csDiMfOMKiNwgXRh4vUT-29" value="extend" style="text;align=center;fontStyle=1;verticalAlign=middle;spacingLeft=3;spacingRight=3;strokeColor=none;rotatable=0;points=[[0,0.5],[1,0.5]];portConstraint=eastwest;html=1;" vertex="1" parent="1">
          <mxGeometry x="410" y="220" width="80" height="26" as="geometry" />
        </mxCell>
        <mxCell id="csDiMfOMKiNwgXRh4vUT-30" value="id" style="ellipse;whiteSpace=wrap;html=1;" vertex="1" parent="1">
          <mxGeometry y="430" width="120" height="80" as="geometry" />
        </mxCell>
        <mxCell id="csDiMfOMKiNwgXRh4vUT-31" style="edgeStyle=orthogonalEdgeStyle;rounded=0;orthogonalLoop=1;jettySize=auto;html=1;exitX=1;exitY=0.5;exitDx=0;exitDy=0;entryX=0;entryY=0.3333333333333333;entryDx=0;entryDy=0;entryPerimeter=0;" edge="1" parent="1" source="csDiMfOMKiNwgXRh4vUT-30" target="csDiMfOMKiNwgXRh4vUT-3">
          <mxGeometry relative="1" as="geometry" />
        </mxCell>
        <mxCell id="csDiMfOMKiNwgXRh4vUT-32" value="текущий счет/&lt;br&gt;кридитный счет" style="ellipse;whiteSpace=wrap;html=1;" vertex="1" parent="1">
          <mxGeometry x="115" y="760" width="120" height="80" as="geometry" />
        </mxCell>
      </root>
    </mxGraphModel>
  </diagram>
</mxfile>
